<mxfile host="app.diagrams.net" modified="2021-12-20T16:14:54.715Z" agent="5.0 (Windows NT 10.0; Win64; x64) AppleWebKit/537.36 (KHTML, like Gecko) Chrome/96.0.4664.110 Safari/537.36" etag="sLiu4_2DyP_-rBqfMszu" version="16.0.0" type="github">
  <diagram id="faOBrLw3G7vDebbFELnh" name="Страница 1">
    <mxGraphModel dx="1422" dy="788" grid="1" gridSize="10" guides="1" tooltips="1" connect="1" arrows="1" fold="1" page="1" pageScale="1" pageWidth="827" pageHeight="1169" math="0" shadow="0">
      <root>
        <mxCell id="0" />
        <mxCell id="1" parent="0" />
        <mxCell id="gFWa6zFG-zIkYdT77vXO-1" value="Клиент" style="shape=umlActor;verticalLabelPosition=bottom;verticalAlign=top;html=1;outlineConnect=0;" parent="1" vertex="1">
          <mxGeometry x="60" y="150" width="30" height="60" as="geometry" />
        </mxCell>
        <mxCell id="gFWa6zFG-zIkYdT77vXO-2" value="Автоподборщик" style="shape=umlActor;verticalLabelPosition=bottom;verticalAlign=top;html=1;outlineConnect=0;" parent="1" vertex="1">
          <mxGeometry x="1120" y="340" width="30" height="60" as="geometry" />
        </mxCell>
        <mxCell id="gFWa6zFG-zIkYdT77vXO-5" value="" style="endArrow=none;html=1;rounded=0;" parent="1" source="gFWa6zFG-zIkYdT77vXO-1" target="gFWa6zFG-zIkYdT77vXO-8" edge="1">
          <mxGeometry width="50" height="50" relative="1" as="geometry">
            <mxPoint x="90" y="180" as="sourcePoint" />
            <mxPoint x="150" y="180" as="targetPoint" />
          </mxGeometry>
        </mxCell>
        <mxCell id="gFWa6zFG-zIkYdT77vXO-8" value="заходит на сайт" style="rounded=0;whiteSpace=wrap;html=1;hachureGap=4;pointerEvents=0;strokeWidth=1;" parent="1" vertex="1">
          <mxGeometry x="150" y="160" width="80" height="40" as="geometry" />
        </mxCell>
        <mxCell id="gFWa6zFG-zIkYdT77vXO-9" value="" style="endArrow=classic;html=1;fontSize=12;endFill=1;edgeStyle=orthogonalEdgeStyle;rounded=0;" parent="1" source="gFWa6zFG-zIkYdT77vXO-8" target="gFWa6zFG-zIkYdT77vXO-12" edge="1">
          <mxGeometry width="50" height="50" relative="1" as="geometry">
            <mxPoint x="440" y="280" as="sourcePoint" />
            <mxPoint x="370" y="170" as="targetPoint" />
          </mxGeometry>
        </mxCell>
        <mxCell id="gFWa6zFG-zIkYdT77vXO-10" value="&lt;span&gt;предварительное согласие на осмотр авто&lt;/span&gt;" style="rounded=0;whiteSpace=wrap;html=1;hachureGap=4;pointerEvents=0;strokeWidth=1;" parent="1" vertex="1">
          <mxGeometry x="440" y="160" width="147.5" height="40" as="geometry" />
        </mxCell>
        <mxCell id="gFWa6zFG-zIkYdT77vXO-11" style="edgeStyle=orthogonalEdgeStyle;orthogonalLoop=1;jettySize=auto;html=1;endArrow=classic;endFill=1;rounded=0;" parent="1" source="gFWa6zFG-zIkYdT77vXO-12" target="gFWa6zFG-zIkYdT77vXO-10" edge="1">
          <mxGeometry relative="1" as="geometry">
            <mxPoint x="390.75" y="220" as="sourcePoint" />
          </mxGeometry>
        </mxCell>
        <mxCell id="gFWa6zFG-zIkYdT77vXO-14" style="edgeStyle=orthogonalEdgeStyle;rounded=1;orthogonalLoop=1;jettySize=auto;html=1;" parent="1" source="gFWa6zFG-zIkYdT77vXO-12" target="gFWa6zFG-zIkYdT77vXO-17" edge="1">
          <mxGeometry relative="1" as="geometry">
            <mxPoint x="410" y="80" as="targetPoint" />
            <Array as="points">
              <mxPoint x="340" y="20" />
            </Array>
          </mxGeometry>
        </mxCell>
        <mxCell id="gFWa6zFG-zIkYdT77vXO-15" style="edgeStyle=orthogonalEdgeStyle;rounded=1;orthogonalLoop=1;jettySize=auto;html=1;" parent="1" source="gFWa6zFG-zIkYdT77vXO-12" target="gFWa6zFG-zIkYdT77vXO-18" edge="1">
          <mxGeometry relative="1" as="geometry">
            <mxPoint x="430" y="280" as="targetPoint" />
            <Array as="points">
              <mxPoint x="342" y="360" />
            </Array>
          </mxGeometry>
        </mxCell>
        <mxCell id="gFWa6zFG-zIkYdT77vXO-19" style="edgeStyle=orthogonalEdgeStyle;rounded=1;orthogonalLoop=1;jettySize=auto;html=1;" parent="1" source="gFWa6zFG-zIkYdT77vXO-12" target="gFWa6zFG-zIkYdT77vXO-20" edge="1">
          <mxGeometry relative="1" as="geometry">
            <mxPoint x="430" y="380" as="targetPoint" />
            <mxPoint x="342" y="200" as="sourcePoint" />
            <Array as="points">
              <mxPoint x="342" y="510" />
            </Array>
          </mxGeometry>
        </mxCell>
        <mxCell id="gFWa6zFG-zIkYdT77vXO-12" value="выбор&lt;br&gt;пункта&lt;br&gt;меню" style="strokeWidth=1;html=1;shape=mxgraph.flowchart.decision;whiteSpace=wrap;" parent="1" vertex="1">
          <mxGeometry x="290" y="150" width="104" height="60" as="geometry" />
        </mxCell>
        <mxCell id="gFWa6zFG-zIkYdT77vXO-29" style="edgeStyle=orthogonalEdgeStyle;rounded=1;orthogonalLoop=1;jettySize=auto;html=1;" parent="1" source="gFWa6zFG-zIkYdT77vXO-17" target="gFWa6zFG-zIkYdT77vXO-30" edge="1">
          <mxGeometry relative="1" as="geometry">
            <mxPoint x="490" y="80" as="targetPoint" />
          </mxGeometry>
        </mxCell>
        <mxCell id="gFWa6zFG-zIkYdT77vXO-17" value="отправка запроса на поиск" style="rounded=0;whiteSpace=wrap;html=1;hachureGap=4;pointerEvents=0;strokeWidth=1;" parent="1" vertex="1">
          <mxGeometry x="416.25" width="147.5" height="40" as="geometry" />
        </mxCell>
        <mxCell id="Oac-YTr6wLjdTGc3S82A-15" style="edgeStyle=orthogonalEdgeStyle;rounded=1;orthogonalLoop=1;jettySize=auto;html=1;" parent="1" source="gFWa6zFG-zIkYdT77vXO-18" target="Oac-YTr6wLjdTGc3S82A-12" edge="1">
          <mxGeometry relative="1" as="geometry" />
        </mxCell>
        <mxCell id="gFWa6zFG-zIkYdT77vXO-18" value="Выбор авто из предложенных" style="rounded=0;whiteSpace=wrap;html=1;hachureGap=4;pointerEvents=0;strokeWidth=1;" parent="1" vertex="1">
          <mxGeometry x="426.75" y="340" width="147.5" height="40" as="geometry" />
        </mxCell>
        <mxCell id="gFWa6zFG-zIkYdT77vXO-20" value="Оплата" style="rounded=0;whiteSpace=wrap;html=1;hachureGap=4;pointerEvents=0;strokeWidth=1;fillColor=none;strokeColor=default;" parent="1" vertex="1">
          <mxGeometry x="540" y="490" width="147.5" height="40" as="geometry" />
        </mxCell>
        <mxCell id="gFWa6zFG-zIkYdT77vXO-30" value="запросы" style="html=1;dashed=0;whitespace=wrap;shape=partialRectangle;right=0;" parent="1" vertex="1">
          <mxGeometry x="440" y="65" width="100" height="30" as="geometry" />
        </mxCell>
        <mxCell id="gFWa6zFG-zIkYdT77vXO-38" style="edgeStyle=orthogonalEdgeStyle;rounded=1;orthogonalLoop=1;jettySize=auto;html=1;" parent="1" source="gFWa6zFG-zIkYdT77vXO-39" target="gFWa6zFG-zIkYdT77vXO-30" edge="1">
          <mxGeometry relative="1" as="geometry">
            <mxPoint x="730" y="610" as="targetPoint" />
            <Array as="points">
              <mxPoint x="848" y="120" />
              <mxPoint x="490" y="120" />
            </Array>
          </mxGeometry>
        </mxCell>
        <mxCell id="gFWa6zFG-zIkYdT77vXO-39" value="Принятие запроса" style="rounded=0;whiteSpace=wrap;html=1;hachureGap=4;pointerEvents=0;strokeWidth=1;" parent="1" vertex="1">
          <mxGeometry x="890" y="170" width="147.5" height="40" as="geometry" />
        </mxCell>
        <mxCell id="gFWa6zFG-zIkYdT77vXO-46" value="" style="endArrow=none;html=1;rounded=1;endFill=0;" parent="1" source="gFWa6zFG-zIkYdT77vXO-2" target="gFWa6zFG-zIkYdT77vXO-39" edge="1">
          <mxGeometry width="50" height="50" relative="1" as="geometry">
            <mxPoint x="750" y="600" as="sourcePoint" />
            <mxPoint x="780" y="660" as="targetPoint" />
          </mxGeometry>
        </mxCell>
        <mxCell id="Oac-YTr6wLjdTGc3S82A-1" style="edgeStyle=orthogonalEdgeStyle;rounded=1;orthogonalLoop=1;jettySize=auto;html=1;" parent="1" source="Oac-YTr6wLjdTGc3S82A-2" target="Oac-YTr6wLjdTGc3S82A-7" edge="1">
          <mxGeometry relative="1" as="geometry">
            <mxPoint x="820.75" y="510" as="targetPoint" />
            <Array as="points">
              <mxPoint x="970" y="385" />
            </Array>
          </mxGeometry>
        </mxCell>
        <mxCell id="Oac-YTr6wLjdTGc3S82A-2" value="&amp;nbsp;поиск автомобилей" style="rounded=0;whiteSpace=wrap;html=1;hachureGap=4;pointerEvents=0;strokeWidth=1;" parent="1" vertex="1">
          <mxGeometry x="896.25" y="300" width="147.5" height="40" as="geometry" />
        </mxCell>
        <mxCell id="Oac-YTr6wLjdTGc3S82A-22" style="edgeStyle=orthogonalEdgeStyle;rounded=1;orthogonalLoop=1;jettySize=auto;html=1;fillColor=#f8cecc;strokeColor=default;" parent="1" source="Oac-YTr6wLjdTGc3S82A-5" target="gFWa6zFG-zIkYdT77vXO-20" edge="1">
          <mxGeometry relative="1" as="geometry">
            <Array as="points">
              <mxPoint x="614" y="580" />
            </Array>
          </mxGeometry>
        </mxCell>
        <mxCell id="Oac-YTr6wLjdTGc3S82A-5" value="Оформление договора&amp;nbsp;" style="rounded=0;whiteSpace=wrap;html=1;hachureGap=4;pointerEvents=0;strokeWidth=1;fillColor=none;strokeColor=default;" parent="1" vertex="1">
          <mxGeometry x="687.5" y="560" width="147.5" height="40" as="geometry" />
        </mxCell>
        <mxCell id="Oac-YTr6wLjdTGc3S82A-11" style="edgeStyle=orthogonalEdgeStyle;rounded=1;orthogonalLoop=1;jettySize=auto;html=1;" parent="1" source="Oac-YTr6wLjdTGc3S82A-7" target="gFWa6zFG-zIkYdT77vXO-18" edge="1">
          <mxGeometry relative="1" as="geometry">
            <mxPoint x="820" y="440" as="sourcePoint" />
            <mxPoint x="810" y="460" as="targetPoint" />
            <Array as="points">
              <mxPoint x="501" y="305" />
            </Array>
          </mxGeometry>
        </mxCell>
        <mxCell id="Oac-YTr6wLjdTGc3S82A-7" value="автомобили" style="html=1;dashed=0;whitespace=wrap;shape=partialRectangle;right=0;" parent="1" vertex="1">
          <mxGeometry x="807.5" y="370" width="100" height="30" as="geometry" />
        </mxCell>
        <mxCell id="Oac-YTr6wLjdTGc3S82A-8" value="" style="endArrow=none;html=1;rounded=0;endFill=0;" parent="1" source="gFWa6zFG-zIkYdT77vXO-2" target="Oac-YTr6wLjdTGc3S82A-2" edge="1">
          <mxGeometry width="50" height="50" relative="1" as="geometry">
            <mxPoint x="860" y="480" as="sourcePoint" />
            <mxPoint x="910" y="430" as="targetPoint" />
          </mxGeometry>
        </mxCell>
        <mxCell id="Oac-YTr6wLjdTGc3S82A-23" style="edgeStyle=orthogonalEdgeStyle;rounded=1;orthogonalLoop=1;jettySize=auto;html=1;fillColor=#f8cecc;strokeColor=default;" parent="1" source="Oac-YTr6wLjdTGc3S82A-9" target="Oac-YTr6wLjdTGc3S82A-5" edge="1">
          <mxGeometry relative="1" as="geometry" />
        </mxCell>
        <mxCell id="Oac-YTr6wLjdTGc3S82A-9" value="Подтверждеие оплаты" style="rounded=0;whiteSpace=wrap;html=1;hachureGap=4;pointerEvents=0;strokeWidth=1;fillColor=none;strokeColor=default;" parent="1" vertex="1">
          <mxGeometry x="890" y="560" width="147.5" height="40" as="geometry" />
        </mxCell>
        <mxCell id="Oac-YTr6wLjdTGc3S82A-12" value="добавление в избранное" style="rounded=0;whiteSpace=wrap;html=1;hachureGap=4;pointerEvents=0;strokeWidth=1;" parent="1" vertex="1">
          <mxGeometry x="620" y="340" width="147.5" height="40" as="geometry" />
        </mxCell>
        <mxCell id="Oac-YTr6wLjdTGc3S82A-21" value="" style="endArrow=none;html=1;rounded=1;endFill=0;" parent="1" source="gFWa6zFG-zIkYdT77vXO-2" target="Oac-YTr6wLjdTGc3S82A-9" edge="1">
          <mxGeometry width="50" height="50" relative="1" as="geometry">
            <mxPoint x="750" y="580" as="sourcePoint" />
            <mxPoint x="1100" y="540" as="targetPoint" />
          </mxGeometry>
        </mxCell>
      </root>
    </mxGraphModel>
  </diagram>
</mxfile>
